<svg width="34" height="30" viewBox="0 0 34 30" fill="none" xmlns="http://www.w3.org/2000/svg">
<g id="icon">
<rect id="back__COLOR:stroke-2" x="0.5" y="0.886261" width="33" height="28.3305" rx="14.1652" stroke="#E8E8E8"/>
<g id="icon_2">
<path id="icon__COLOR:icon-main" fill-rule="evenodd" clip-rule="evenodd" d="M18.7927 16.1417C17.3608 17.377 15.0391 17.377 13.6072 16.1417C12.1753 14.9065 12.1753 12.9037 13.6072 11.6684C15.0391 10.4332 17.3608 10.4332 18.7927 11.6684C20.2246 12.9037 20.2246 14.9065 18.7927 16.1417ZM19.2331 17.3347C17.2728 18.6282 14.4572 18.5016 12.6644 16.955C10.7118 15.2706 10.7118 12.5396 12.6644 10.8551C14.617 9.17066 17.7829 9.17066 19.7355 10.8551C21.5282 12.4016 21.675 14.8304 20.1758 16.5214L23.7425 19.5983L22.7997 20.4116L19.2331 17.3347Z" fill="black"/>
</g>
</g>
</svg>
